<?xml version="1.0" standalone="no"?>
<!DOCTYPE svg PUBLIC "-//W3C//DTD SVG 20010904//EN"
 "http://www.w3.org/TR/2001/REC-SVG-20010904/DTD/svg10.dtd">
<svg version="1.0" xmlns="http://www.w3.org/2000/svg"
 width="700.000000pt" height="700.000000pt" viewBox="0 0 700.000000 700.000000"
 preserveAspectRatio="xMidYMid meet">
<metadata>
Created by potrace 1.14, written by Peter Selinger 2001-2017
</metadata>
<g transform="translate(0.000000,700.000000) scale(0.100000,-0.100000)"
fill="#000000" stroke="none">
<path d="M3327 6954 c-1 -1 -45 -5 -97 -8 -52 -3 -104 -8 -115 -10 -11 -2 -45
-7 -75 -10 -110 -14 -238 -39 -375 -73 -836 -207 -1559 -718 -2039 -1438 -96
-143 -114 -174 -197 -330 -159 -301 -304 -743 -343 -1050 -2 -16 -7 -46 -10
-65 -33 -187 -40 -696 -12 -850 3 -14 7 -47 10 -75 8 -79 44 -272 66 -360 11
-44 22 -88 25 -98 62 -254 228 -635 398 -912 27 -44 157 -233 186 -270 18 -22
42 -53 54 -68 102 -131 252 -287 417 -435 105 -94 376 -300 467 -355 560 -338
1176 -511 1816 -509 127 0 291 8 357 17 19 3 55 7 80 10 561 72 1104 285 1564
615 70 50 138 100 149 110 134 111 191 163 307 279 377 379 653 828 829 1349
33 97 95 341 106 414 4 24 8 45 10 48 2 3 6 30 10 60 3 30 8 62 11 71 14 50
31 310 31 484 0 184 -2 234 -22 425 -6 67 -42 282 -51 312 -3 9 -6 25 -9 35
-61 307 -221 699 -417 1023 -224 371 -540 722 -872 967 -39 29 -76 57 -82 62
-19 16 -195 131 -201 131 -3 0 -17 8 -31 18 -32 22 -141 83 -232 128 -203 101
-471 201 -700 259 -41 11 -261 54 -300 60 -25 3 -56 8 -70 10 -138 20 -260 28
-453 29 -103 1 -189 1 -190 0z"/>
</g>
</svg>
